<?xml version="1.0"?>
<svg xmlns="http://www.w3.org/2000/svg" height="512px" viewBox="0 0 512.002 512" width="512px"><path d="m310.003906 222.007812c-48.523437 0-88 39.476563-88 88 0 48.523438 39.476563 88 88 88 48.523438 0 88-39.476562 88-88 0-48.523437-39.476562-88-88-88zm0 156c-37.492187 0-68-30.507812-68-68 0-37.496093 30.507813-68 68-68 37.496094 0 68 30.503907 68 68 0 37.492188-30.503906 68-68 68zm0 0" fill="#e66d1d"/><path d="m502.066406 454.121094-79.363281-79.367188c11-19.074218 17.300781-41.191406 17.300781-64.746094 0-5.523437-4.476562-10-10-10-5.523437 0-10 4.476563-10 10 0 60.652344-49.347656 110-110 110s-110-49.347656-110-110c0-25.40625 8.824219-50.011718 24.855469-69.609374 2.9375.460937 5.945313.703124 9.011719.703124 25.367187 0 46.976562-16.339843 54.894531-39.039062 6.953125-1.359375 14.09375-2.054688 21.238281-2.054688 34.730469 0 66.703125 15.894532 87.71875 43.613282 1.964844 2.59375 4.953125 3.957031 7.976563 3.957031 2.101562 0 4.226562-.660156 6.03125-2.03125 4.402343-3.335937 5.265625-9.609375 1.929687-14.007813-24.828125-32.75-62.609375-51.53125-103.65625-51.53125-6.027344 0-12.054687.425782-18.003906 1.25v-161.246093c0-6.28125-2.863281-12.074219-7.855469-15.890625-4.992187-3.8125-11.328125-5.054688-17.394531-3.40625l-155.746094 42.367187c-8.683594 2.363281-14.75 10.296875-14.75 19.296875v125.625c-10.214844-8.902344-23.546875-14.308594-38.125-14.308594-32.054687 0-58.128906 26.074219-58.128906 58.128907 0 32.050781 26.074219 58.125 58.128906 58.125 32.050782 0 58.125-26.074219 58.125-58.125v-110.707031l155.746094-42.367188v60.40625c-10.214844-8.898438-23.546875-14.308594-38.128906-14.308594-32.050782 0-58.125 26.078125-58.125 58.128906 0 21.539063 11.789062 40.367188 29.242187 50.410157-16.167969 22.152343-24.984375 48.996093-24.984375 76.621093 0 71.679688 58.316406 130 130 130 23.558594 0 45.667969-6.300781 64.742188-17.300781l79.367187 79.367188c6.613281 6.609375 15.296875 9.917969 23.980469 9.917969s17.367188-3.308594 23.976562-9.917969c6.402344-6.402344 9.933594-14.917969 9.933594-23.976563-.003906-9.058594-3.53125-17.574218-9.9375-23.976562zm-443.9375-184.171875c-21.023437 0-38.128906-17.105469-38.128906-38.125 0-21.023438 17.105469-38.128907 38.128906-38.128907 21.019532 0 38.125 17.105469 38.125 38.128907 0 21.019531-17.105468 38.125-38.125 38.125zm58.125-207.570313 155.746094-42.367187v38.011719l-155.746094 42.367187zm117.617188 82.46875c21.023437 0 38.128906 17.105469 38.128906 38.128906 0 21.023438-17.105469 38.125-38.128906 38.125-21.019532 0-38.125-17.101562-38.125-38.125 0-21.023437 17.105468-38.128906 38.125-38.128906zm254.054687 343.085938c-5.421875 5.421875-14.246093 5.421875-19.667969 0l-76.738281-76.738282c7.234375-5.839843 13.832031-12.4375 19.667969-19.671874l76.738281 76.738281c2.628907 2.628906 4.074219 6.121093 4.074219 9.835937s-1.445312 7.207032-4.074219 9.835938zm0 0" fill="#e66d1d"/><path d="m342.660156 290.945312-37.328125-21.550781c-6.890625-3.980469-15.117187-3.980469-22.007812 0s-11.003907 11.105469-11.003907 19.0625v43.101563c0 7.957031 4.113282 15.082031 11.003907 19.0625 3.445312 1.988281 7.222656 2.980468 11.003906 2.980468 3.777344 0 7.558594-.992187 11.003906-2.980468l37.328125-21.554688c6.894532-3.976562 11.007813-11.101562 11.007813-19.058594 0-7.957031-4.113281-15.082031-11.007813-19.0625zm-10 20.800782-37.328125 21.550781c-.664062.386719-1.34375.386719-2.007812 0-.667969-.382813-1.003907-.96875-1.003907-1.738281v-43.105469c0-.769531.335938-1.355469 1.003907-1.738281.332031-.191406.667969-.289063 1.003906-.289063s.671875.09375 1.003906.289063l37.328125 21.550781c.667969.386719 1.007813.972656 1.007813 1.742187 0 .769532-.339844 1.355469-1.007813 1.738282zm0 0" fill="#e66d1d"/><path d="m416.589844 278.476562c1.859375 1.871094 4.441406 2.929688 7.070312 2.929688s5.210938-1.058594 7.070313-2.929688c1.859375-1.859374 2.929687-4.429687 2.929687-7.070312 0-2.628906-1.070312-5.210938-2.929687-7.070312-1.859375-1.859376-4.441407-2.929688-7.070313-2.929688s-5.210937 1.070312-7.070312 2.929688c-1.859375 1.859374-2.929688 4.441406-2.929688 7.070312 0 2.640625 1.070313 5.210938 2.929688 7.070312zm0 0" fill="#e66d1d"/></svg>
